<svg width="48" height="48" viewBox="0 0 48 48" fill="none" xmlns="http://www.w3.org/2000/svg">
<path d="M22.2486 25.4562L21.4865 26.447V26.447L22.2486 25.4562ZM25.7514 25.4562L26.5136 26.447L25.7514 25.4562ZM7.07692 9.25H40.9231V6.75H7.07692V9.25ZM42.75 11.4188V35.3504H45.25V11.4188H42.75ZM40.9231 37.5192H7.07692V40.0192H40.9231V37.5192ZM5.25 35.3504V11.4188H2.75V35.3504H5.25ZM7.07692 37.5192C6.18857 37.5192 5.25 36.6754 5.25 35.3504H2.75C2.75 37.8018 4.5666 40.0192 7.07692 40.0192V37.5192ZM42.75 35.3504C42.75 36.6754 41.8114 37.5192 40.9231 37.5192V40.0192C43.4334 40.0192 45.25 37.8018 45.25 35.3504H42.75ZM40.9231 9.25C41.8114 9.25 42.75 10.0939 42.75 11.4188H45.25C45.25 8.96743 43.4334 6.75 40.9231 6.75V9.25ZM7.07692 6.75C4.56661 6.75 2.75 8.96743 2.75 11.4188H5.25C5.25 10.0939 6.18857 9.25 7.07692 9.25V6.75ZM3.23786 12.4096L21.4865 26.447L23.0107 24.4654L4.76214 10.428L3.23786 12.4096ZM26.5136 26.447L44.7621 12.4096L43.2379 10.428L24.9893 24.4654L26.5136 26.447ZM21.4865 26.447C22.9894 27.6031 25.0106 27.6031 26.5136 26.447L24.9893 24.4654C24.3849 24.9303 23.6151 24.9303 23.0107 24.4654L21.4865 26.447Z" fill="#222222"/>
</svg>
