<svg width="68" height="68" viewBox="0 0 68 68" fill="none" xmlns="http://www.w3.org/2000/svg">
<path d="M21.4489 44.7833C20.9607 45.2714 20.9607 46.0629 21.4489 46.5511C21.937 47.0392 22.7285 47.0392 23.2166 46.5511L21.4489 44.7833ZM45.4905 24.2772C45.9787 23.789 45.9787 22.9976 45.4905 22.5094C45.0024 22.0213 44.2109 22.0213 43.7227 22.5094L45.4905 24.2772ZM45.6673 22.3326L46.9173 22.3326C46.9173 21.6423 46.3576 21.0826 45.6673 21.0826L45.6673 22.3326ZM28.6967 21.0826C28.0064 21.0826 27.4467 21.6423 27.4467 22.3326C27.4467 23.023 28.0064 23.5826 28.6967 23.5826L28.6967 21.0826ZM44.4173 39.3032C44.4173 39.9936 44.9769 40.5532 45.6673 40.5532C46.3576 40.5532 46.9173 39.9936 46.9173 39.3032L44.4173 39.3032ZM23.2166 46.5511L45.4905 24.2772L43.7227 22.5094L21.4489 44.7833L23.2166 46.5511ZM45.6673 21.0826L28.6967 21.0826L28.6967 23.5826L45.6673 23.5826L45.6673 21.0826ZM44.4173 22.3326L44.4173 39.3032L46.9173 39.3032V22.3326L44.4173 22.3326Z" fill="#222222"/>
</svg>
