<svg width="44" height="48" viewBox="0 0 44 48" fill="none" xmlns="http://www.w3.org/2000/svg">
<path d="M9.45376 12.5373C8.7719 12.6452 8.3067 13.2855 8.41469 13.9674C8.52269 14.6493 9.16299 15.1145 9.84485 15.0065L9.45376 12.5373ZM16.6437 13.9296C17.3255 13.8216 17.7907 13.1813 17.6827 12.4995C17.5747 11.8176 16.9344 11.3524 16.2526 11.4604L16.6437 13.9296ZM11.069 22.7355C10.3871 22.8435 9.92193 23.4838 10.0299 24.1656C10.1379 24.8475 10.7782 25.3127 11.4601 25.2047L11.069 22.7355ZM28.4571 22.5126C29.139 22.4046 29.6042 21.7643 29.4962 21.0825C29.3882 20.4006 28.7479 19.9354 28.066 20.0434L28.4571 22.5126ZM12.1458 29.5343C11.464 29.6423 10.9988 30.2826 11.1068 30.9644C11.2148 31.6463 11.8551 32.1115 12.5369 32.0035L12.1458 29.5343ZM26.1345 29.8498C26.8164 29.7418 27.2816 29.1015 27.1736 28.4197C27.0656 27.7378 26.4253 27.2726 25.7434 27.3806L26.1345 29.8498ZM10.5572 41.5055L10.7527 42.7401L10.5572 41.5055ZM6.61938 38.6445L5.38477 38.84L6.61938 38.6445ZM37.214 33.7988L38.4486 33.6033L37.214 33.7988ZM34.353 37.7366L34.1575 36.502L34.353 37.7366ZM28.6997 2.04288L28.8952 3.27749L28.6997 2.04288ZM32.6375 4.90387L31.4029 5.09941L32.6375 4.90387ZM4.90387 5.81177L4.70832 4.57715L4.90387 5.81177ZM2.04288 9.74958L3.27749 9.55404L2.04288 9.74958ZM40.75 14.0301V43.2852H43.25V14.0301H40.75ZM38.5582 45.477H14.4658V47.977H38.5582V45.477ZM14.4658 45.477C13.2553 45.477 12.274 44.4957 12.274 43.2852H9.774C9.774 45.8764 11.8746 47.977 14.4658 47.977V45.477ZM40.75 43.2852C40.75 44.4957 39.7687 45.477 38.5582 45.477V47.977C41.1494 47.977 43.25 45.8764 43.25 43.2852H40.75ZM38.5582 11.8383C39.7687 11.8383 40.75 12.8196 40.75 14.0301H43.25C43.25 11.4389 41.1494 9.33834 38.5582 9.33834V11.8383ZM12.274 43.2852V40.5H9.774V43.2852H12.274ZM38.5582 9.33834H33.3956V11.8383H38.5582V9.33834ZM9.84485 15.0065L16.6437 13.9296L16.2526 11.4604L9.45376 12.5373L9.84485 15.0065ZM11.4601 25.2047L28.4571 22.5126L28.066 20.0434L11.069 22.7355L11.4601 25.2047ZM12.5369 32.0035L26.1345 29.8498L25.7434 27.3806L12.1458 29.5343L12.5369 32.0035ZM5.09941 7.04638L28.8952 3.27749L28.5041 0.808267L4.70832 4.57715L5.09941 7.04638ZM31.4029 5.09941L35.9794 33.9943L38.4486 33.6033L33.8721 4.70832L31.4029 5.09941ZM34.1575 36.502L10.3617 40.2709L10.7527 42.7401L34.5486 38.9712L34.1575 36.502ZM7.85399 38.449L3.27749 9.55404L0.808267 9.94512L5.38477 38.84L7.85399 38.449ZM10.3617 40.2709C9.16608 40.4603 8.04336 39.6445 7.85399 38.449L5.38477 38.84C5.79013 41.3993 8.19345 43.1455 10.7527 42.7401L10.3617 40.2709ZM35.9794 33.9943C36.1688 35.1899 35.3531 36.3126 34.1575 36.502L34.5486 38.9712C37.1079 38.5659 38.854 36.1625 38.4486 33.6033L35.9794 33.9943ZM28.8952 3.27749C30.0908 3.08813 31.2135 3.90383 31.4029 5.09941L33.8721 4.70832C33.4668 2.14903 31.0634 0.402914 28.5041 0.808267L28.8952 3.27749ZM4.70832 4.57715C2.14903 4.98251 0.402914 7.38583 0.808267 9.94512L3.27749 9.55404C3.08813 8.35846 3.90383 7.23574 5.09941 7.04638L4.70832 4.57715Z" fill="#222222"/>
</svg>
